<mxfile host="app.diagrams.net" agent="Mozilla/5.0 (Windows NT 10.0; Win64; x64) AppleWebKit/537.36 (KHTML, like Gecko) Chrome/139.0.0.0 Safari/537.36 Edg/139.0.0.0" version="28.0.9">
  <diagram name="第 1 页" id="Llp0b9NQfiZDjPyqsILq">
    <mxGraphModel dx="1205" dy="1150" grid="0" gridSize="10" guides="0" tooltips="1" connect="0" arrows="0" fold="1" page="0" pageScale="1" pageWidth="827" pageHeight="1169" background="#FFFFCC" math="0" shadow="0">
      <root>
        <mxCell id="0" />
        <mxCell id="1" parent="0" />
        <mxCell id="0ZAwiDs7WrddA5UiuClp-19" style="edgeStyle=orthogonalEdgeStyle;rounded=1;orthogonalLoop=1;jettySize=auto;html=1;entryX=0.5;entryY=0;entryDx=0;entryDy=0;labelBackgroundColor=none;fontColor=default;strokeColor=#A8201A;fontSize=12;" parent="1" source="0ZAwiDs7WrddA5UiuClp-1" target="0ZAwiDs7WrddA5UiuClp-4" edge="1">
          <mxGeometry relative="1" as="geometry" />
        </mxCell>
        <mxCell id="0ZAwiDs7WrddA5UiuClp-1" value="&lt;b&gt;Block1&lt;/b&gt;&lt;div&gt;Conv&lt;/div&gt;&lt;div&gt;Relu&lt;/div&gt;&lt;div&gt;Conv&lt;/div&gt;&lt;div&gt;relu&lt;/div&gt;&lt;div&gt;Pool&lt;/div&gt;" style="rounded=1;whiteSpace=wrap;html=1;labelBackgroundColor=none;fillColor=#FAE5C7;strokeColor=#0F8B8D;fontColor=#143642;fontSize=12;" parent="1" vertex="1">
          <mxGeometry x="85" y="130" width="90" height="90" as="geometry" />
        </mxCell>
        <mxCell id="0ZAwiDs7WrddA5UiuClp-20" style="edgeStyle=orthogonalEdgeStyle;rounded=1;orthogonalLoop=1;jettySize=auto;html=1;labelBackgroundColor=none;fontColor=default;strokeColor=#A8201A;fontSize=12;" parent="1" source="0ZAwiDs7WrddA5UiuClp-4" target="0ZAwiDs7WrddA5UiuClp-9" edge="1">
          <mxGeometry relative="1" as="geometry" />
        </mxCell>
        <mxCell id="0ZAwiDs7WrddA5UiuClp-4" value="&lt;b&gt;Block2&lt;/b&gt;&lt;div&gt;Conv&lt;/div&gt;&lt;div&gt;Relu&lt;/div&gt;&lt;div&gt;Pool&lt;/div&gt;" style="rounded=1;whiteSpace=wrap;html=1;labelBackgroundColor=none;fillColor=#FAE5C7;strokeColor=#0F8B8D;fontColor=#143642;fontSize=12;" parent="1" vertex="1">
          <mxGeometry x="85" y="240" width="90" height="70" as="geometry" />
        </mxCell>
        <mxCell id="0ZAwiDs7WrddA5UiuClp-21" style="edgeStyle=orthogonalEdgeStyle;rounded=1;orthogonalLoop=1;jettySize=auto;html=1;labelBackgroundColor=none;fontColor=default;strokeColor=#A8201A;fontSize=12;" parent="1" source="0ZAwiDs7WrddA5UiuClp-9" target="0ZAwiDs7WrddA5UiuClp-12" edge="1">
          <mxGeometry relative="1" as="geometry" />
        </mxCell>
        <mxCell id="0ZAwiDs7WrddA5UiuClp-9" value="&lt;b&gt;Block2&lt;/b&gt;" style="rounded=1;whiteSpace=wrap;html=1;labelBackgroundColor=none;fillColor=#FAE5C7;strokeColor=#0F8B8D;fontColor=#143642;fontSize=12;" parent="1" vertex="1">
          <mxGeometry x="85" y="350" width="90" height="40" as="geometry" />
        </mxCell>
        <mxCell id="0ZAwiDs7WrddA5UiuClp-33" style="edgeStyle=orthogonalEdgeStyle;rounded=1;orthogonalLoop=1;jettySize=auto;html=1;entryX=0.5;entryY=1;entryDx=0;entryDy=0;labelBackgroundColor=none;fontColor=default;strokeColor=#A8201A;fontSize=12;" parent="1" source="0ZAwiDs7WrddA5UiuClp-10" target="0ZAwiDs7WrddA5UiuClp-11" edge="1">
          <mxGeometry relative="1" as="geometry" />
        </mxCell>
        <mxCell id="0ZAwiDs7WrddA5UiuClp-10" value="&lt;b&gt;Block3&lt;/b&gt;&lt;br&gt;&lt;div&gt;Conv&lt;/div&gt;&lt;div&gt;Relu&lt;/div&gt;&lt;div&gt;Transpose&lt;/div&gt;" style="rounded=1;whiteSpace=wrap;html=1;labelBackgroundColor=none;fillColor=#FAE5C7;strokeColor=#0F8B8D;fontColor=#143642;fontSize=12;" parent="1" vertex="1">
          <mxGeometry x="238" y="668" width="110" height="80" as="geometry" />
        </mxCell>
        <mxCell id="0ZAwiDs7WrddA5UiuClp-35" style="edgeStyle=orthogonalEdgeStyle;rounded=1;orthogonalLoop=1;jettySize=auto;html=1;entryX=0.5;entryY=1;entryDx=0;entryDy=0;labelBackgroundColor=none;fontColor=default;strokeColor=#A8201A;fontSize=12;" parent="1" source="0ZAwiDs7WrddA5UiuClp-11" target="0ZAwiDs7WrddA5UiuClp-15" edge="1">
          <mxGeometry relative="1" as="geometry" />
        </mxCell>
        <mxCell id="0ZAwiDs7WrddA5UiuClp-44" value="" style="edgeStyle=orthogonalEdgeStyle;rounded=1;orthogonalLoop=1;jettySize=auto;html=1;labelBackgroundColor=none;fontColor=default;strokeColor=#A8201A;fontSize=12;" parent="1" source="0ZAwiDs7WrddA5UiuClp-11" target="0ZAwiDs7WrddA5UiuClp-15" edge="1">
          <mxGeometry relative="1" as="geometry" />
        </mxCell>
        <mxCell id="0ZAwiDs7WrddA5UiuClp-11" value="&lt;b&gt;Block4&lt;/b&gt;&lt;br&gt;&lt;div&gt;Conv&lt;/div&gt;&lt;div&gt;Relu&lt;/div&gt;&lt;div&gt;Conv&lt;/div&gt;&lt;div&gt;Relu&lt;/div&gt;&lt;div&gt;Transpose&lt;/div&gt;" style="rounded=1;whiteSpace=wrap;html=1;labelBackgroundColor=none;fillColor=#FAE5C7;strokeColor=#0F8B8D;fontColor=#143642;fontSize=12;" parent="1" vertex="1">
          <mxGeometry x="400" y="480" width="105" height="90" as="geometry" />
        </mxCell>
        <mxCell id="0ZAwiDs7WrddA5UiuClp-22" style="edgeStyle=orthogonalEdgeStyle;rounded=1;orthogonalLoop=1;jettySize=auto;html=1;labelBackgroundColor=none;fontColor=default;strokeColor=#A8201A;fontSize=12;" parent="1" source="0ZAwiDs7WrddA5UiuClp-12" target="0ZAwiDs7WrddA5UiuClp-14" edge="1">
          <mxGeometry relative="1" as="geometry">
            <Array as="points">
              <mxPoint x="130" y="580" />
              <mxPoint x="130" y="580" />
            </Array>
          </mxGeometry>
        </mxCell>
        <mxCell id="0ZAwiDs7WrddA5UiuClp-12" value="&lt;b&gt;Block2&lt;/b&gt;" style="rounded=1;whiteSpace=wrap;html=1;labelBackgroundColor=none;fillColor=#FAE5C7;strokeColor=#0F8B8D;fontColor=#143642;fontSize=12;" parent="1" vertex="1">
          <mxGeometry x="85" y="470" width="90" height="40" as="geometry" />
        </mxCell>
        <mxCell id="0ZAwiDs7WrddA5UiuClp-14" value="&lt;b&gt;Block2&lt;/b&gt;" style="rounded=1;whiteSpace=wrap;html=1;labelBackgroundColor=none;fillColor=#FAE5C7;strokeColor=#0F8B8D;fontColor=#143642;fontSize=12;" parent="1" vertex="1">
          <mxGeometry x="85" y="600" width="90" height="40" as="geometry" />
        </mxCell>
        <mxCell id="0ZAwiDs7WrddA5UiuClp-57" style="edgeStyle=orthogonalEdgeStyle;rounded=1;orthogonalLoop=1;jettySize=auto;html=1;entryX=0.5;entryY=1;entryDx=0;entryDy=0;labelBackgroundColor=none;fontColor=default;strokeColor=#A8201A;fontSize=12;" parent="1" source="0ZAwiDs7WrddA5UiuClp-15" target="0ZAwiDs7WrddA5UiuClp-53" edge="1">
          <mxGeometry relative="1" as="geometry" />
        </mxCell>
        <mxCell id="0ZAwiDs7WrddA5UiuClp-15" value="&lt;b&gt;Block5&lt;/b&gt;&lt;br&gt;&lt;div&gt;Conv&lt;/div&gt;&lt;div&gt;Relu&lt;/div&gt;&lt;div&gt;Conv&lt;/div&gt;&lt;div&gt;Relu&lt;/div&gt;&lt;div&gt;Transpose&lt;/div&gt;" style="rounded=1;whiteSpace=wrap;html=1;labelBackgroundColor=none;fillColor=#FAE5C7;strokeColor=#0F8B8D;fontColor=#143642;fontSize=12;" parent="1" vertex="1">
          <mxGeometry x="401" y="337" width="105" height="90" as="geometry" />
        </mxCell>
        <mxCell id="0ZAwiDs7WrddA5UiuClp-64" style="edgeStyle=orthogonalEdgeStyle;rounded=1;orthogonalLoop=1;jettySize=auto;html=1;entryX=0;entryY=0.5;entryDx=0;entryDy=0;labelBackgroundColor=none;fontColor=default;strokeColor=#A8201A;fontSize=12;" parent="1" source="0ZAwiDs7WrddA5UiuClp-16" edge="1">
          <mxGeometry relative="1" as="geometry">
            <mxPoint x="580" y="20" as="targetPoint" />
          </mxGeometry>
        </mxCell>
        <mxCell id="0ZAwiDs7WrddA5UiuClp-16" value="&lt;b&gt;Block6&lt;/b&gt;&lt;div&gt;&lt;span style=&quot;background-color: transparent; color: light-dark(rgb(0, 0, 0), rgb(255, 255, 255));&quot;&gt;Conv&lt;/span&gt;&lt;div&gt;Relu&lt;/div&gt;&lt;div&gt;Conv&lt;/div&gt;&lt;div&gt;Relu&lt;/div&gt;&lt;div&gt;Conv&lt;/div&gt;&lt;div&gt;Leakyrelu&lt;/div&gt;&lt;/div&gt;" style="rounded=1;whiteSpace=wrap;html=1;labelBackgroundColor=none;fillColor=#FAE5C7;strokeColor=#0F8B8D;fontColor=#143642;fontSize=12;" parent="1" vertex="1">
          <mxGeometry x="394.06" y="-30" width="116.87" height="100" as="geometry" />
        </mxCell>
        <mxCell id="0ZAwiDs7WrddA5UiuClp-43" value="" style="endArrow=classic;html=1;rounded=1;labelBackgroundColor=none;fontColor=default;strokeColor=#A8201A;fontSize=12;" parent="1" edge="1">
          <mxGeometry width="50" height="50" relative="1" as="geometry">
            <mxPoint x="130" y="450" as="sourcePoint" />
            <mxPoint x="450" y="450" as="targetPoint" />
          </mxGeometry>
        </mxCell>
        <mxCell id="0ZAwiDs7WrddA5UiuClp-89" value="concat" style="edgeLabel;html=1;align=center;verticalAlign=middle;resizable=0;points=[];labelBackgroundColor=none;rounded=1;fontColor=#143642;fontSize=12;" parent="0ZAwiDs7WrddA5UiuClp-43" vertex="1" connectable="0">
          <mxGeometry x="-0.0608" y="-4" relative="1" as="geometry">
            <mxPoint as="offset" />
          </mxGeometry>
        </mxCell>
        <mxCell id="0ZAwiDs7WrddA5UiuClp-45" value="" style="endArrow=classic;html=1;rounded=1;exitX=0.5;exitY=1;exitDx=0;exitDy=0;entryX=0;entryY=0.5;entryDx=0;entryDy=0;labelBackgroundColor=none;fontColor=default;strokeColor=#A8201A;fontSize=12;" parent="1" source="0ZAwiDs7WrddA5UiuClp-14" target="0ZAwiDs7WrddA5UiuClp-10" edge="1">
          <mxGeometry width="50" height="50" relative="1" as="geometry">
            <mxPoint x="710" y="580" as="sourcePoint" />
            <mxPoint x="760" y="530" as="targetPoint" />
            <Array as="points">
              <mxPoint x="130" y="710" />
            </Array>
          </mxGeometry>
        </mxCell>
        <mxCell id="0ZAwiDs7WrddA5UiuClp-58" style="edgeStyle=orthogonalEdgeStyle;rounded=1;orthogonalLoop=1;jettySize=auto;html=1;labelBackgroundColor=none;fontColor=default;strokeColor=#A8201A;fontSize=12;" parent="1" source="0ZAwiDs7WrddA5UiuClp-53" target="0ZAwiDs7WrddA5UiuClp-54" edge="1">
          <mxGeometry relative="1" as="geometry" />
        </mxCell>
        <mxCell id="0ZAwiDs7WrddA5UiuClp-53" value="&lt;b&gt;Block5&lt;/b&gt;" style="rounded=1;whiteSpace=wrap;html=1;labelBackgroundColor=none;fillColor=#FAE5C7;strokeColor=#0F8B8D;fontColor=#143642;fontSize=12;" parent="1" vertex="1">
          <mxGeometry x="400" y="250" width="105" height="40" as="geometry" />
        </mxCell>
        <mxCell id="0ZAwiDs7WrddA5UiuClp-59" style="edgeStyle=orthogonalEdgeStyle;rounded=1;orthogonalLoop=1;jettySize=auto;html=1;entryX=0.5;entryY=1;entryDx=0;entryDy=0;labelBackgroundColor=none;fontColor=default;strokeColor=#A8201A;fontSize=12;" parent="1" source="0ZAwiDs7WrddA5UiuClp-54" target="0ZAwiDs7WrddA5UiuClp-16" edge="1">
          <mxGeometry relative="1" as="geometry" />
        </mxCell>
        <mxCell id="0ZAwiDs7WrddA5UiuClp-54" value="&lt;b&gt;Block5&lt;/b&gt;" style="rounded=1;whiteSpace=wrap;html=1;labelBackgroundColor=none;fillColor=#FAE5C7;strokeColor=#0F8B8D;fontColor=#143642;fontSize=12;" parent="1" vertex="1">
          <mxGeometry x="400" y="170" width="105" height="40" as="geometry" />
        </mxCell>
        <mxCell id="0ZAwiDs7WrddA5UiuClp-61" value="" style="endArrow=classic;html=1;rounded=1;labelBackgroundColor=none;fontColor=default;strokeColor=#A8201A;fontSize=12;" parent="1" edge="1">
          <mxGeometry width="50" height="50" relative="1" as="geometry">
            <mxPoint x="130" y="320" as="sourcePoint" />
            <mxPoint x="450" y="320" as="targetPoint" />
          </mxGeometry>
        </mxCell>
        <mxCell id="0ZAwiDs7WrddA5UiuClp-88" value="concat" style="edgeLabel;html=1;align=center;verticalAlign=middle;resizable=0;points=[];labelBackgroundColor=none;rounded=1;fontColor=#143642;fontSize=12;" parent="0ZAwiDs7WrddA5UiuClp-61" vertex="1" connectable="0">
          <mxGeometry x="-0.0902" y="-4" relative="1" as="geometry">
            <mxPoint as="offset" />
          </mxGeometry>
        </mxCell>
        <mxCell id="0ZAwiDs7WrddA5UiuClp-65" value="C=1" style="text;html=1;align=center;verticalAlign=middle;resizable=0;points=[];autosize=1;strokeColor=none;fillColor=none;labelBackgroundColor=none;rounded=1;fontColor=#143642;fontSize=12;" parent="1" vertex="1">
          <mxGeometry x="70" y="82" width="40" height="26" as="geometry" />
        </mxCell>
        <mxCell id="0ZAwiDs7WrddA5UiuClp-72" value="C=48" style="text;html=1;align=center;verticalAlign=middle;resizable=0;points=[];autosize=1;strokeColor=none;fillColor=none;labelBackgroundColor=none;rounded=1;fontColor=#143642;fontSize=12;" parent="1" vertex="1">
          <mxGeometry x="52" y="222" width="47" height="26" as="geometry" />
        </mxCell>
        <mxCell id="0ZAwiDs7WrddA5UiuClp-73" value="C=48" style="text;html=1;align=center;verticalAlign=middle;resizable=0;points=[];autosize=1;strokeColor=none;fillColor=none;labelBackgroundColor=none;rounded=1;fontColor=#143642;fontSize=12;" parent="1" vertex="1">
          <mxGeometry x="62" y="322" width="47" height="26" as="geometry" />
        </mxCell>
        <mxCell id="0ZAwiDs7WrddA5UiuClp-74" value="C=48" style="text;html=1;align=center;verticalAlign=middle;resizable=0;points=[];autosize=1;strokeColor=none;fillColor=none;labelBackgroundColor=none;rounded=1;fontColor=#143642;fontSize=12;" parent="1" vertex="1">
          <mxGeometry x="67" y="412" width="47" height="26" as="geometry" />
        </mxCell>
        <mxCell id="0ZAwiDs7WrddA5UiuClp-75" value="C=48" style="text;html=1;align=center;verticalAlign=middle;resizable=0;points=[];autosize=1;strokeColor=none;fillColor=none;labelBackgroundColor=none;rounded=1;fontColor=#143642;fontSize=12;" parent="1" vertex="1">
          <mxGeometry x="72" y="542" width="47" height="26" as="geometry" />
        </mxCell>
        <mxCell id="0ZAwiDs7WrddA5UiuClp-76" value="C=48" style="text;html=1;align=center;verticalAlign=middle;resizable=0;points=[];autosize=1;strokeColor=none;fillColor=none;labelBackgroundColor=none;rounded=1;fontColor=#143642;fontSize=12;" parent="1" vertex="1">
          <mxGeometry x="82" y="672" width="47" height="26" as="geometry" />
        </mxCell>
        <mxCell id="0ZAwiDs7WrddA5UiuClp-77" value="C=48" style="text;html=1;align=center;verticalAlign=middle;resizable=0;points=[];autosize=1;strokeColor=none;fillColor=none;labelBackgroundColor=none;rounded=1;fontColor=#143642;fontSize=12;" parent="1" vertex="1">
          <mxGeometry x="372" y="672" width="47" height="26" as="geometry" />
        </mxCell>
        <mxCell id="0ZAwiDs7WrddA5UiuClp-78" value="C=96" style="text;html=1;align=center;verticalAlign=middle;resizable=0;points=[];autosize=1;strokeColor=none;fillColor=none;labelBackgroundColor=none;rounded=1;fontColor=#143642;fontSize=12;" parent="1" vertex="1">
          <mxGeometry x="462.93" y="452" width="47" height="26" as="geometry" />
        </mxCell>
        <mxCell id="0ZAwiDs7WrddA5UiuClp-79" value="C=144" style="text;html=1;align=center;verticalAlign=middle;resizable=0;points=[];autosize=1;strokeColor=none;fillColor=none;labelBackgroundColor=none;rounded=1;fontColor=#143642;fontSize=12;" parent="1" vertex="1">
          <mxGeometry x="459.93" y="432" width="54" height="26" as="geometry" />
        </mxCell>
        <mxCell id="0ZAwiDs7WrddA5UiuClp-80" value="C=96" style="text;html=1;align=center;verticalAlign=middle;resizable=0;points=[];autosize=1;strokeColor=none;fillColor=none;labelBackgroundColor=none;rounded=1;arcSize=50;fontColor=#143642;fontSize=12;" parent="1" vertex="1">
          <mxGeometry x="447.93" y="315" width="47" height="26" as="geometry" />
        </mxCell>
        <mxCell id="0ZAwiDs7WrddA5UiuClp-81" value="C=144" style="text;html=1;align=center;verticalAlign=middle;resizable=0;points=[];autosize=1;strokeColor=none;fillColor=none;labelBackgroundColor=none;rounded=1;fontColor=#143642;fontSize=12;" parent="1" vertex="1">
          <mxGeometry x="449.93" y="292" width="54" height="26" as="geometry" />
        </mxCell>
        <mxCell id="0ZAwiDs7WrddA5UiuClp-82" value="C=144" style="text;html=1;align=center;verticalAlign=middle;resizable=0;points=[];autosize=1;strokeColor=none;fillColor=none;labelBackgroundColor=none;rounded=1;fontColor=#143642;fontSize=12;" parent="1" vertex="1">
          <mxGeometry x="449.93" y="212" width="54" height="26" as="geometry" />
        </mxCell>
        <mxCell id="0ZAwiDs7WrddA5UiuClp-83" value="C=96" style="text;html=1;align=center;verticalAlign=middle;resizable=0;points=[];autosize=1;strokeColor=none;fillColor=none;labelBackgroundColor=none;rounded=1;fontColor=#143642;fontSize=12;" parent="1" vertex="1">
          <mxGeometry x="452.93" y="232" width="47" height="26" as="geometry" />
        </mxCell>
        <mxCell id="0ZAwiDs7WrddA5UiuClp-84" value="C=96" style="text;html=1;align=center;verticalAlign=middle;resizable=0;points=[];autosize=1;strokeColor=none;fillColor=none;labelBackgroundColor=none;rounded=1;fontColor=#143642;fontSize=12;" parent="1" vertex="1">
          <mxGeometry x="447.93" y="142" width="47" height="26" as="geometry" />
        </mxCell>
        <mxCell id="0ZAwiDs7WrddA5UiuClp-85" value="C=97" style="text;html=1;align=center;verticalAlign=middle;resizable=0;points=[];autosize=1;strokeColor=none;fillColor=none;labelBackgroundColor=none;rounded=1;fontColor=#143642;fontSize=12;" parent="1" vertex="1">
          <mxGeometry x="452.93" y="82" width="47" height="26" as="geometry" />
        </mxCell>
        <mxCell id="0ZAwiDs7WrddA5UiuClp-86" value="C=1" style="text;html=1;align=center;verticalAlign=middle;resizable=0;points=[];autosize=1;strokeColor=none;fillColor=none;labelBackgroundColor=none;rounded=1;fontColor=#143642;fontSize=12;" parent="1" vertex="1">
          <mxGeometry x="515.9300000000001" y="-8" width="40" height="26" as="geometry" />
        </mxCell>
        <mxCell id="0ZAwiDs7WrddA5UiuClp-91" value="" style="endArrow=classic;html=1;rounded=1;labelBackgroundColor=none;fontColor=default;strokeColor=#A8201A;fontSize=12;" parent="1" edge="1">
          <mxGeometry width="50" height="50" relative="1" as="geometry">
            <mxPoint x="130" y="230" as="sourcePoint" />
            <mxPoint x="450" y="230" as="targetPoint" />
          </mxGeometry>
        </mxCell>
        <mxCell id="0ZAwiDs7WrddA5UiuClp-92" value="concat" style="edgeLabel;html=1;align=center;verticalAlign=middle;resizable=0;points=[];labelBackgroundColor=none;rounded=1;fontColor=#143642;fontSize=12;" parent="0ZAwiDs7WrddA5UiuClp-91" vertex="1" connectable="0">
          <mxGeometry x="-0.0902" y="-4" relative="1" as="geometry">
            <mxPoint as="offset" />
          </mxGeometry>
        </mxCell>
        <mxCell id="0ZAwiDs7WrddA5UiuClp-93" value="" style="endArrow=classic;html=1;rounded=1;labelBackgroundColor=none;fontColor=default;strokeColor=#A8201A;fontSize=12;" parent="1" edge="1">
          <mxGeometry width="50" height="50" relative="1" as="geometry">
            <mxPoint x="130.93" y="583" as="sourcePoint" />
            <mxPoint x="450.93" y="583" as="targetPoint" />
          </mxGeometry>
        </mxCell>
        <mxCell id="0ZAwiDs7WrddA5UiuClp-94" value="concat" style="edgeLabel;html=1;align=center;verticalAlign=middle;resizable=0;points=[];labelBackgroundColor=none;rounded=1;fontColor=#143642;fontSize=12;" parent="0ZAwiDs7WrddA5UiuClp-93" vertex="1" connectable="0">
          <mxGeometry x="-0.0902" y="-4" relative="1" as="geometry">
            <mxPoint as="offset" />
          </mxGeometry>
        </mxCell>
        <mxCell id="0ZAwiDs7WrddA5UiuClp-95" value="&lt;b&gt;输出&lt;/b&gt;" style="rounded=0;whiteSpace=wrap;html=1;labelBackgroundColor=none;fillColor=#FAE5C7;strokeColor=#0F8B8D;fontColor=#143642;fontSize=12;" parent="1" vertex="1">
          <mxGeometry x="579" y="-9" width="120" height="60" as="geometry" />
        </mxCell>
        <mxCell id="0ZAwiDs7WrddA5UiuClp-96" value="&lt;b&gt;输入&lt;/b&gt;" style="rounded=0;whiteSpace=wrap;html=1;labelBackgroundColor=none;fillColor=#FAE5C7;strokeColor=#0F8B8D;fontColor=#143642;fontSize=12;" parent="1" vertex="1">
          <mxGeometry x="73" y="-19" width="120" height="53" as="geometry" />
        </mxCell>
        <mxCell id="0ZAwiDs7WrddA5UiuClp-97" value="" style="endArrow=classic;html=1;rounded=1;labelBackgroundColor=none;fontColor=default;strokeColor=#A8201A;fontSize=12;" parent="1" edge="1">
          <mxGeometry width="50" height="50" relative="1" as="geometry">
            <mxPoint x="132" y="107" as="sourcePoint" />
            <mxPoint x="449" y="107" as="targetPoint" />
          </mxGeometry>
        </mxCell>
        <mxCell id="0ZAwiDs7WrddA5UiuClp-98" value="concat" style="edgeLabel;html=1;align=center;verticalAlign=middle;resizable=0;points=[];labelBackgroundColor=none;rounded=1;fontColor=#143642;fontSize=12;" parent="0ZAwiDs7WrddA5UiuClp-97" vertex="1" connectable="0">
          <mxGeometry x="-0.0902" y="-4" relative="1" as="geometry">
            <mxPoint as="offset" />
          </mxGeometry>
        </mxCell>
        <mxCell id="MAAyZzWKW7p1De1UbzWa-2" style="edgeStyle=orthogonalEdgeStyle;rounded=1;orthogonalLoop=1;jettySize=auto;html=1;labelBackgroundColor=none;fontColor=default;strokeColor=#A8201A;fontSize=12;exitX=0.456;exitY=1.013;exitDx=0;exitDy=0;exitPerimeter=0;" edge="1" parent="1" source="0ZAwiDs7WrddA5UiuClp-96">
          <mxGeometry relative="1" as="geometry">
            <mxPoint x="158" y="415" as="sourcePoint" />
            <mxPoint x="128" y="129" as="targetPoint" />
          </mxGeometry>
        </mxCell>
      </root>
    </mxGraphModel>
  </diagram>
</mxfile>
